M48
; DRILL file KiCad 10.0.3 date 2026-07-11T20:55:55
; FORMAT={-:-/ absolute / metric / decimal}
; #@! TF.CreationDate,2026-07-11T20:55:55-04:00
; #@! TF.GenerationSoftware,Kicad,Pcbnew,10.0.3
; #@! TF.FileFunction,Plated,1,2,PTH
FMAT,2
METRIC
; #@! TA.AperFunction,Plated,PTH,ViaDrill
T1C0.300
; #@! TA.AperFunction,Plated,PTH,ComponentDrill
T2C0.400
; #@! TA.AperFunction,Plated,PTH,ComponentDrill
T3C0.600
; #@! TA.AperFunction,Plated,PTH,ComponentDrill
T4C1.600
; #@! TA.AperFunction,Plated,PTH,ComponentDrill
T5C3.000
%
G90
G05
T1
X107.823Y-40.894
X108.077Y-115.57
X110.998Y-108.458
X114.046Y-48.641
X122.174Y-53.34
X139.573Y-48.514
X157.607Y-109.728
X167.386Y-48.768
X168.275Y-81.28
X184.404Y-84.963
X184.912Y-76.962
X185.039Y-109.982
X186.055Y-84.963
X189.23Y-79.502
X189.614Y-76.07
X190.82Y-76.388
X191.008Y-74.803
X191.262Y-86.487
X191.704Y-75.504
X192.659Y-40.64
X193.04Y-73.66
X193.167Y-114.808
X194.945Y-71.628
T2
X194.603Y-74.68
X194.603Y-75.53
X194.603Y-76.38
X194.603Y-77.23
X194.603Y-78.08
X194.603Y-78.93
X194.603Y-79.78
X194.603Y-80.63
X195.953Y-74.68
X195.953Y-75.53
X195.953Y-76.38
X195.953Y-77.23
X195.953Y-78.08
X195.953Y-78.93
X195.953Y-79.78
X195.953Y-80.63
T4
X113.17Y-96.235
X113.17Y-108.235
X116.27Y-48.5
X116.27Y-63.5
X119.42Y-102.235
X121.92Y-102.235
X122.27Y-54.75
X122.27Y-57.25
X128.17Y-96.235
X128.17Y-108.235
X128.27Y-48.5
X128.27Y-63.5
X142.305Y-48.565
X142.305Y-63.565
X143.575Y-94.615
X143.575Y-109.615
X148.305Y-54.815
X148.305Y-57.315
X149.575Y-100.865
X149.575Y-103.365
X154.305Y-48.565
X154.305Y-63.565
X155.575Y-94.615
X155.575Y-109.615
X169.655Y-48.425
X169.655Y-63.425
X170.88Y-94.855
X170.88Y-109.855
X175.655Y-54.675
X175.655Y-57.175
X176.88Y-101.105
X176.88Y-103.605
X181.655Y-48.425
X181.655Y-63.425
X182.88Y-94.855
X182.88Y-109.855
T5
X104.14Y-40.64
X104.14Y-114.808
X197.104Y-40.64
X197.104Y-114.808
T3
G00X194.833Y-73.33
M15
G01X196.333Y-73.33
M16
G05
G00X194.833Y-81.98
M15
G01X196.333Y-81.98
M16
G05
G00X198.563Y-73.33
M15
G01X199.363Y-73.33
M16
G05
G00X198.563Y-81.98
M15
G01X199.363Y-81.98
M16
G05
M30
